# xmcd CD database file
# Copyright (C) 1993-1998 Ti Kan
#
# Track frame offsets:
#	183
#	4165
#	23050
#	36090
#	48558
#	60630
#	74195
#	92363
#	111540
#	127553
#	145683
#	169003
#
# Disc length: 2463 seconds
#
# Revision: 1
# Processed by: cddbd v1.4b41PL1 Copyright (c) Steve Scherf et al.
# Submitted via: QuintessentialCD v1.1 (c) 1998 Paul Quinn
#
DISCID=9d099d0c
DTITLE=Sergio Godinho - Coincidencias
DYEAR=1900
DGENRE=
TTITLE0=Introdução ( As horas extraordinárias)
TTITLE1=O Labirinto
TTITLE2=A barca dos Amantes
TTITLE3=Tantas vezes fui à guerra
TTITLE4=As certezas do meu mais brilhante amor (Coisas do amor I)
TTITLE5=Não vás contar que mudei a fechadura (Coisas do amor II)
TTITLE6=Caso Fatal
TTITLE7=Que há-de ser de nós ?
TTITLE8=Não te deixes assim vestir...
TTITLE9=Um tempo que passou
TTITLE10=Num bilhete de ida e volta
TTITLE11=As horas extraordinárias
EXTD=Este disco é dedicado a todos os que por \namor e amizade fizeram pela min
EXTD=ha\n( que é a nossa) liberdade.\npor isso vos agradeço\npor isso vos não e
EXTD=squeço\n\nSergio Godinho - 1983\n
EXTT0=
EXTT1=
EXTT2=
EXTT3=
EXTT4=
EXTT5=
EXTT6=
EXTT7=
EXTT8=
EXTT9=
EXTT10=
EXTT11=
PLAYORDER=
